<svg width="90" height="27" viewBox="0 0 90 27" fill="none" xmlns="http://www.w3.org/2000/svg">
<path d="M90 21H46V25H90V21Z" fill="#8BD2BD"/>
<path d="M45 21H1V25H45V21Z" fill="#FFE031"/>
<path d="M12.576 3.32V5.552H8.136V20H5.4V5.552H0.936V3.32H12.576ZM27.4669 13.064C27.4669 13.56 27.4349 14.008 27.3709 14.408H17.2669C17.3469 15.464 17.7389 16.312 18.4429 16.952C19.1469 17.592 20.0109 17.912 21.0349 17.912C22.5069 17.912 23.5469 17.296 24.1549 16.064H27.1069C26.7069 17.28 25.9789 18.28 24.9229 19.064C23.8829 19.832 22.5869 20.216 21.0349 20.216C19.7709 20.216 18.6349 19.936 17.6269 19.376C16.6349 18.8 15.8509 18 15.2749 16.976C14.7149 15.936 14.4349 14.736 14.4349 13.376C14.4349 12.016 14.7069 10.824 15.2509 9.8C15.8109 8.76 16.5869 7.96 17.5789 7.4C18.5869 6.84 19.7389 6.56 21.0349 6.56C22.2829 6.56 23.3949 6.832 24.3709 7.376C25.3469 7.92 26.1069 8.688 26.6509 9.68C27.1949 10.656 27.4669 11.784 27.4669 13.064ZM24.6109 12.2C24.5949 11.192 24.2349 10.384 23.5309 9.776C22.8269 9.168 21.9549 8.864 20.9149 8.864C19.9709 8.864 19.1629 9.168 18.4909 9.776C17.8189 10.368 17.4189 11.176 17.2909 12.2H24.6109ZM42.2794 13.064C42.2794 13.56 42.2474 14.008 42.1834 14.408H32.0794C32.1594 15.464 32.5514 16.312 33.2554 16.952C33.9594 17.592 34.8234 17.912 35.8474 17.912C37.3194 17.912 38.3594 17.296 38.9674 16.064H41.9194C41.5194 17.28 40.7914 18.28 39.7354 19.064C38.6954 19.832 37.3994 20.216 35.8474 20.216C34.5834 20.216 33.4474 19.936 32.4394 19.376C31.4474 18.8 30.6634 18 30.0874 16.976C29.5274 15.936 29.2474 14.736 29.2474 13.376C29.2474 12.016 29.5194 10.824 30.0634 9.8C30.6234 8.76 31.3994 7.96 32.3914 7.4C33.3994 6.84 34.5514 6.56 35.8474 6.56C37.0954 6.56 38.2074 6.832 39.1834 7.376C40.1594 7.92 40.9194 8.688 41.4634 9.68C42.0074 10.656 42.2794 11.784 42.2794 13.064ZM39.4234 12.2C39.4074 11.192 39.0474 10.384 38.3434 9.776C37.6394 9.168 36.7674 8.864 35.7274 8.864C34.7834 8.864 33.9754 9.168 33.3034 9.776C32.6314 10.368 32.2314 11.176 32.1034 12.2H39.4234ZM44.0599 13.328C44.0599 12 44.3319 10.824 44.8759 9.8C45.4359 8.776 46.1879 7.984 47.1319 7.424C48.0919 6.848 49.1479 6.56 50.2999 6.56C51.3399 6.56 52.2439 6.768 53.0119 7.184C53.7959 7.584 54.4199 8.088 54.8839 8.696V6.776H57.6439V20H54.8839V18.032C54.4199 18.656 53.7879 19.176 52.9879 19.592C52.1879 20.008 51.2759 20.216 50.2519 20.216C49.1159 20.216 48.0759 19.928 47.1319 19.352C46.1879 18.76 45.4359 17.944 44.8759 16.904C44.3319 15.848 44.0599 14.656 44.0599 13.328ZM54.8839 13.376C54.8839 12.464 54.6919 11.672 54.3079 11C53.9399 10.328 53.4519 9.816 52.8439 9.464C52.2359 9.112 51.5799 8.936 50.8759 8.936C50.1719 8.936 49.5159 9.112 48.9079 9.464C48.2999 9.8 47.8039 10.304 47.4199 10.976C47.0519 11.632 46.8679 12.416 46.8679 13.328C46.8679 14.24 47.0519 15.04 47.4199 15.728C47.8039 16.416 48.2999 16.944 48.9079 17.312C49.5319 17.664 50.1879 17.84 50.8759 17.84C51.5799 17.84 52.2359 17.664 52.8439 17.312C53.4519 16.96 53.9399 16.448 54.3079 15.776C54.6919 15.088 54.8839 14.288 54.8839 13.376ZM67.9095 6.56C68.9495 6.56 69.8775 6.776 70.6935 7.208C71.5255 7.64 72.1735 8.28 72.6375 9.128C73.1015 9.976 73.3335 11 73.3335 12.2V20H70.6215V12.608C70.6215 11.424 70.3255 10.52 69.7335 9.896C69.1415 9.256 68.3335 8.936 67.3095 8.936C66.2855 8.936 65.4695 9.256 64.8615 9.896C64.2695 10.52 63.9735 11.424 63.9735 12.608V20H61.2375V6.776H63.9735V8.288C64.4215 7.744 64.9895 7.32 65.6775 7.016C66.3815 6.712 67.1255 6.56 67.9095 6.56ZM82.1514 6.56C83.1754 6.56 84.0794 6.768 84.8634 7.184C85.6634 7.584 86.2874 8.088 86.7354 8.696V6.776H89.4954V20.216C89.4954 21.432 89.2394 22.512 88.7274 23.456C88.2154 24.416 87.4714 25.168 86.4954 25.712C85.5354 26.256 84.3834 26.528 83.0394 26.528C81.2474 26.528 79.7594 26.104 78.5754 25.256C77.3914 24.424 76.7194 23.288 76.5594 21.848H79.2714C79.4794 22.536 79.9194 23.088 80.5914 23.504C81.2794 23.936 82.0954 24.152 83.0394 24.152C84.1434 24.152 85.0314 23.816 85.7034 23.144C86.3914 22.472 86.7354 21.496 86.7354 20.216V18.008C86.2714 18.632 85.6394 19.16 84.8394 19.592C84.0554 20.008 83.1594 20.216 82.1514 20.216C80.9994 20.216 79.9434 19.928 78.9834 19.352C78.0394 18.76 77.2874 17.944 76.7274 16.904C76.1834 15.848 75.9114 14.656 75.9114 13.328C75.9114 12 76.1834 10.824 76.7274 9.8C77.2874 8.776 78.0394 7.984 78.9834 7.424C79.9434 6.848 80.9994 6.56 82.1514 6.56ZM86.7354 13.376C86.7354 12.464 86.5434 11.672 86.1594 11C85.7914 10.328 85.3034 9.816 84.6954 9.464C84.0874 9.112 83.4314 8.936 82.7274 8.936C82.0234 8.936 81.3674 9.112 80.7594 9.464C80.1514 9.8 79.6554 10.304 79.2714 10.976C78.9034 11.632 78.7194 12.416 78.7194 13.328C78.7194 14.24 78.9034 15.04 79.2714 15.728C79.6554 16.416 80.1514 16.944 80.7594 17.312C81.3834 17.664 82.0394 17.84 82.7274 17.84C83.4314 17.84 84.0874 17.664 84.6954 17.312C85.3034 16.96 85.7914 16.448 86.1594 15.776C86.5434 15.088 86.7354 14.288 86.7354 13.376Z" fill="black"/>
</svg>
