<?xml version="1.0" standalone="no"?>
<!DOCTYPE svg PUBLIC "-//W3C//DTD SVG 20010904//EN"
 "http://www.w3.org/TR/2001/REC-SVG-20010904/DTD/svg10.dtd">
<svg version="1.0" xmlns="http://www.w3.org/2000/svg"
 width="480.000000pt" height="480.000000pt" viewBox="0 0 480.000000 480.000000"
 preserveAspectRatio="xMidYMid meet">
<metadata>
Created by potrace 1.14, written by Peter Selinger 2001-2017
</metadata>
<g transform="translate(0.000000,480.000000) scale(0.100000,-0.100000)"
fill="#000000" stroke="none">
<path d="M2638 3561 c-260 -128 -244 -124 -615 -166 -235 -27 -320 -48 -433
-106 -198 -102 -379 -353 -404 -559 -7 -56 12 -223 38 -333 l14 -59 -37 -15
c-59 -25 -165 -141 -191 -209 -61 -165 -19 -344 108 -461 34 -30 137 -81 177
-88 104 -15 105 -16 120 -46 44 -84 245 -338 380 -477 137 -143 227 -185 579
-271 247 -60 309 -71 422 -72 203 -2 355 79 468 250 105 157 152 312 230 757
18 104 20 184 6 234 -6 19 -14 91 -19 160 -10 130 -44 283 -81 367 l-21 48 20
14 c28 18 26 37 -5 83 -17 23 -41 43 -68 53 -25 10 -49 28 -59 45 -9 15 -61
72 -115 126 -83 84 -100 106 -111 149 -8 28 -25 69 -38 93 l-24 43 20 89 c12
48 26 137 31 197 6 59 12 126 15 149 6 55 -11 79 -47 65 -14 -5 -67 -21 -116
-34 l-91 -25 9 23 c8 21 -3 46 -19 44 -4 0 -68 -31 -143 -68z m316 -691 c78
-56 203 -176 194 -186 -3 -2 -31 -11 -62 -19 -66 -17 -122 -44 -153 -75 -27
-24 -28 -33 -8 -53 13 -13 23 -13 86 4 40 10 105 19 145 19 83 0 95 -8 126
-79 55 -128 83 -247 93 -391 3 -52 13 -130 22 -172 15 -71 15 -83 0 -155 -9
-43 -19 -100 -23 -128 -12 -96 -63 -321 -93 -407 -67 -197 -159 -321 -285
-384 -128 -63 -247 -58 -590 26 -354 87 -408 113 -556 267 -114 120 -288 341
-353 449 -42 70 -49 74 -117 74 -102 0 -213 69 -260 160 -27 53 -40 137 -30
192 27 141 134 234 282 245 l68 6 19 -44 c10 -24 47 -110 81 -191 35 -81 68
-152 74 -157 24 -20 39 11 67 145 48 221 89 443 89 476 0 29 -25 88 -68 158
-32 51 -28 98 11 156 39 59 96 94 154 94 23 0 127 -14 230 -31 320 -54 509
-44 663 35 40 20 75 32 89 29 14 -2 61 -31 105 -63z"/>
<path d="M2345 2662 c-43 -21 -85 -70 -85 -100 0 -37 22 -43 86 -25 83 22 284
23 342 0 45 -17 67 -15 76 9 8 21 -1 37 -38 62 -65 44 -135 64 -241 69 -83 3
-107 1 -140 -15z"/>
<path d="M2472 2490 c-33 -15 -47 -29 -62 -62 -25 -54 -25 -79 -1 -127 26 -51
65 -74 123 -75 77 -1 139 59 140 136 2 107 -101 173 -200 128z"/>
<path d="M3095 2496 c-114 -49 -118 -204 -7 -257 49 -24 88 -21 140 11 98 60
69 218 -46 250 -46 12 -50 12 -87 -4z"/>
<path d="M2809 2174 c-10 -13 -10 -22 0 -47 69 -175 101 -315 87 -372 -7 -26
-9 -27 -64 -24 -31 2 -63 0 -69 -4 -22 -14 -15 -47 13 -57 33 -13 120 -13 145
0 65 35 65 157 -1 354 -51 153 -78 189 -111 150z"/>
<path d="M1292 2073 c-29 -11 -31 -50 -8 -135 18 -65 27 -86 47 -95 19 -10 28
-10 44 1 28 19 30 54 6 138 -24 86 -46 108 -89 91z"/>
<path d="M2417 1453 c-4 -3 -7 -16 -7 -29 0 -28 26 -37 166 -59 234 -37 490
13 422 82 -16 15 -21 15 -80 -3 -93 -28 -312 -25 -418 6 -40 12 -74 13 -83 3z"/>
</g>
</svg>
