<svg width="393" height="42" viewBox="0 0 393 42" fill="none" xmlns="http://www.w3.org/2000/svg">
<path d="M8.52667 17.089C11.6036 17.089 14.8271 16.911 17.9041 16.733C19.2228 16.733 20.3949 16.555 21.7136 16.555C27.2815 16.199 32.8493 15.8429 38.4171 15.4869C45.1571 15.1309 51.7506 14.5969 58.4906 14.2408C68.0145 13.5288 77.5385 12.9948 87.0624 12.2827C89.2602 12.1047 91.458 12.1047 93.6559 11.9267C99.2237 11.5707 104.792 11.2147 110.359 11.0366C115.927 10.6806 121.495 10.3246 127.063 10.1466C129.261 9.96859 131.458 9.79058 133.656 9.79058C142.448 9.43455 151.385 9.07853 160.177 8.72251C165.598 8.5445 171.019 8.36649 176.587 8.01047C178.785 8.01047 180.836 7.83246 183.034 7.83246C191.532 7.65445 200.177 7.47644 208.675 7.29843C217.174 7.12042 225.525 6.94241 234.024 6.7644C236.222 6.7644 238.419 6.7644 240.764 6.7644C246.332 6.7644 251.753 6.7644 257.321 6.7644C265.966 6.7644 274.464 6.7644 283.109 6.58639C285.893 6.58639 288.676 6.58639 291.46 6.58639C297.321 6.58639 303.182 6.58639 309.043 6.58639C309.483 6.58639 310.069 6.58639 310.508 6.58639C297.321 6.7644 283.988 6.94241 270.801 7.29843C265.233 7.47644 259.812 7.47644 254.244 7.65445C251.899 7.65445 249.409 7.65445 247.064 7.83246C239.006 8.01047 231.093 8.36649 223.035 8.5445C213.804 8.90052 204.573 9.07853 195.342 9.43455C193.73 9.43455 192.265 9.61256 190.653 9.61256C185.672 9.96859 180.836 10.1466 175.855 10.5026C165.891 11.0366 155.928 11.5707 145.964 12.1047C144.499 12.1047 143.034 12.2827 141.568 12.4607C136.733 12.8168 131.752 13.3508 126.916 13.7068C118.125 14.4188 109.48 15.1309 100.689 15.8429C98.3445 16.0209 95.8537 16.377 93.5093 16.555C87.9415 17.089 82.3737 17.623 76.8058 18.3351C69.7728 19.0471 62.5932 19.7592 55.5602 20.4712C45.7432 21.5393 35.7797 22.6073 25.9628 23.6754C23.6184 23.8534 21.2741 24.2094 18.7832 24.3874C14.5341 24.9215 10.2849 25.4555 6.03579 25.9895C5.59623 25.9895 5.15666 26.3455 5.15666 27.0576C5.15666 27.5916 5.59623 28.1257 6.03579 28.1257C7.64753 28.1257 9.11275 28.3037 10.7245 28.3037C10.4314 29.1937 10.2849 29.7277 10.2849 30.2618C10.2849 32.2199 11.6036 34 13.3619 34C25.5232 33.1099 37.538 32.0419 49.6993 31.3298C60.2489 30.7958 70.7984 30.0838 81.348 29.5497C92.9232 28.8377 104.645 28.1257 116.22 27.5916C119.883 27.4136 123.546 27.2356 127.209 26.8796C128.235 26.8796 129.261 26.7016 130.433 26.7016C149.188 26.1675 167.942 25.4555 186.697 24.9215C196.661 24.5654 206.771 24.2094 216.734 24.0314C220.397 23.8534 223.914 23.8534 227.577 23.6754C246.771 23.3194 265.966 22.9634 285.16 22.6073C293.365 22.4293 301.57 22.2513 309.776 22.0733C316.809 21.8953 323.842 21.8953 330.875 21.5393C336.736 21.3613 342.45 21.0052 348.311 20.8272C351.241 20.6492 354.172 20.6492 356.956 20.4712C363.549 19.9372 370.143 19.4031 376.736 18.8691C376.297 19.5812 376.296 20.6492 376.443 21.3613C376.59 22.2513 377.029 22.9633 377.762 23.3194C378.348 23.6754 379.227 24.0314 379.813 23.6754C381.278 22.9634 382.743 22.2513 384.062 21.5393C384.062 21.5393 384.062 21.5393 383.916 21.5393C384.062 21.5393 384.062 21.3613 384.209 21.3613C384.355 21.3613 384.502 21.1832 384.502 21.1832H384.355C385.088 20.8272 385.82 20.4712 386.7 19.9372C387.432 19.5812 388.311 19.0471 389.044 18.6911C389.923 18.1571 390.656 17.623 391.535 17.089C392.414 16.555 393 15.1309 393 13.8848C393 13.1728 392.853 12.6387 392.56 11.9267C392.267 11.2147 391.535 10.3246 390.802 10.1466C390.07 9.96859 389.337 9.79058 388.604 9.79058C388.458 9.79058 388.311 9.79058 388.165 9.79058C387.725 9.79058 387.139 9.79058 386.7 9.96859C385.527 10.1466 384.502 10.3246 383.33 10.3246C382.45 10.3246 381.571 10.5026 380.546 10.5026C378.055 10.6806 375.71 10.8586 373.22 11.2147C372.633 11.2147 371.901 11.3927 371.315 11.3927C371.608 11.0366 371.754 10.6806 371.754 10.3246C371.901 9.96859 371.901 9.61257 371.901 9.25654C371.901 9.07853 371.901 8.72251 372.047 8.5445C372.047 8.18848 372.047 7.83246 371.901 7.65445C371.901 7.65445 372.047 7.65445 372.047 7.47644C372.487 7.12042 372.926 6.7644 373.22 6.05236C373.513 5.51832 373.659 4.80628 373.659 4.09424C373.659 3.3822 373.513 2.84817 373.22 2.13613C373.073 1.95812 372.926 1.60209 372.78 1.42408C372.34 0.890052 371.901 0.712042 371.461 0.534031C370.582 0.17801 369.556 0 368.531 0C367.652 0 366.919 0 366.04 0C364.868 0 363.696 0 362.523 0C360.912 0 359.153 0 357.542 0C353.146 0 348.75 0 344.355 0C340.252 0 336.003 0 331.9 0C328.091 0 324.428 0 320.618 0C305.526 0 290.581 0.17801 275.489 0.356021C264.207 0.534031 252.925 0.712042 241.643 0.712042C236.661 0.712042 231.533 0.890052 226.551 1.06806C215.269 1.42408 203.987 1.60209 192.705 1.95812C189.481 1.95812 186.258 2.13613 183.034 2.13613C181.129 2.13613 179.371 2.31414 177.466 2.31414C166.331 2.84817 155.195 3.3822 144.059 3.91623C140.689 4.09424 137.319 4.27225 133.803 4.45026C131.898 4.45026 129.993 4.62827 128.088 4.80628C116.953 5.51832 105.964 6.23037 94.828 6.94241C89.1137 7.29843 83.3993 7.65445 77.685 8.18848C67.868 8.90052 58.051 9.61256 48.3806 10.5026C39.8823 11.2147 31.3841 11.7487 22.8858 12.2827C21.5671 12.4607 20.2484 12.4607 18.7832 12.6387C16.5854 12.8168 14.3875 12.8168 12.1897 12.9948C10.2849 13.7068 8.23362 13.7068 6.32884 13.7068C6.18232 12.9948 5.59623 12.4607 5.15666 12.6387C3.83797 12.6387 2.66579 12.8168 1.34709 12.9948C0.761007 13.1728 0.17492 13.5288 0.0283981 14.2408C-0.118124 15.1309 0.321442 16.0209 0.907529 16.199C1.49362 16.377 2.0797 16.555 2.66579 16.733C3.25188 16.911 3.69144 16.911 4.27753 16.911C5.74275 17.089 7.06145 17.089 8.52667 17.089ZM351.388 11.3927C353.146 11.3927 355.051 11.3927 356.809 11.3927C356.956 11.9267 357.249 12.2827 357.542 12.6387C356.809 12.6387 356.076 12.8168 355.49 12.8168C354.172 12.8168 352.853 12.9948 351.534 12.9948C345.673 13.1728 339.959 13.5288 334.098 13.7068C331.461 13.8848 328.823 14.0628 326.186 14.0628C322.083 14.0628 317.834 14.2408 313.732 14.2408C304.208 14.4188 294.83 14.5969 285.306 14.7749C266.845 15.1309 248.529 15.4869 230.068 15.8429C216.881 16.0209 203.694 16.555 190.507 17.089C170.726 17.801 150.799 18.3351 131.019 19.0471C127.063 19.2251 123.107 19.4031 119.151 19.7592C107.868 20.4712 96.5863 21.0052 85.3041 21.7173C74.315 22.4293 63.1793 22.9634 52.1902 23.6754C51.1645 23.6754 50.1389 23.8534 49.1132 23.8534C52.0437 23.4974 55.1206 23.3194 58.051 22.9633C68.4541 22.0733 78.8572 21.0052 89.2602 20.1152C92.9232 19.7592 96.5863 19.4031 100.103 19.0471C102.008 18.8691 103.912 18.6911 105.671 18.6911C116.66 17.9791 127.502 17.089 138.345 16.377C140.396 16.199 142.594 16.0209 144.645 15.8429C147.722 15.6649 150.799 15.4869 153.73 15.4869C164.865 14.9529 176.001 14.4188 187.137 13.8848C189.628 13.7068 192.119 13.7068 194.463 13.5288C195.049 13.5288 195.782 13.5288 196.368 13.5288C198.126 13.5288 199.884 13.5288 201.496 13.3508C212.632 12.9948 223.914 12.8168 235.049 12.4607C240.178 12.2827 245.306 12.1047 250.434 12.1047C266.991 11.9267 283.695 11.7487 300.252 11.5707C317.541 11.5707 334.538 11.3927 351.388 11.3927Z" fill="#8BD2BD"/>
<path d="M30.4775 42C30.9205 42 31.2796 41.5523 31.2796 41C31.2796 40.4477 30.9205 40 30.4775 40C30.0346 40 29.6755 40.4477 29.6755 41C29.6755 41.5523 30.0346 42 30.4775 42Z" fill="#8BD2BD"/>
</svg>
