<svg width="195" height="70" viewBox="0 0 195 70" fill="none" xmlns="http://www.w3.org/2000/svg">
<path d="M129 8.00002L139.667 14.6667L150.333 8.00002V12H153V5.33335C153 3.86669 151.8 2.66669 150.333 2.66669H129C127.533 2.66669 126.347 3.86669 126.347 5.33335L126.333 21.3334C126.333 22.8 127.533 24 129 24H142.333V21.3334H129V8.00002ZM150.333 5.33335L139.667 12L129 5.33335H150.333Z" fill="black"/>
<path d="M153 18.6667V24C153 25.4667 151.8 26.6667 150.333 26.6667C148.867 26.6667 147.667 25.4667 147.667 24V18C147.667 17.6267 147.96 17.3334 148.333 17.3334C148.707 17.3334 149 17.6267 149 18V24H151.667V18C151.667 17.116 151.315 16.2681 150.69 15.643C150.065 15.0179 149.217 14.6667 148.333 14.6667C147.449 14.6667 146.601 15.0179 145.976 15.643C145.351 16.2681 145 17.116 145 18V24C145 26.9467 147.387 29.3334 150.333 29.3334C153.28 29.3334 155.667 26.9467 155.667 24V18.6667H153Z" fill="black"/>
<path d="M167 8.00002L177.667 14.6667L188.333 8.00002V12H191V5.33335C191 3.86669 189.8 2.66669 188.333 2.66669H167C165.533 2.66669 164.347 3.86669 164.347 5.33335L164.333 21.3334C164.333 22.8 165.533 24 167 24H180.333V21.3334H167V8.00002ZM188.333 5.33335L177.667 12L167 5.33335H188.333Z" fill="black"/>
<path d="M191 18.6667V24C191 25.4667 189.8 26.6667 188.333 26.6667C186.867 26.6667 185.667 25.4667 185.667 24V18C185.667 17.6267 185.96 17.3334 186.333 17.3334C186.707 17.3334 187 17.6267 187 18V24H189.667V18C189.667 17.116 189.315 16.2681 188.69 15.643C188.065 15.0179 187.217 14.6667 186.333 14.6667C185.449 14.6667 184.601 15.0179 183.976 15.643C183.351 16.2681 183 17.116 183 18V24C183 26.9467 185.387 29.3334 188.333 29.3334C191.28 29.3334 193.667 26.9467 193.667 24V18.6667H191Z" fill="black"/>
<path d="M129 46L139.667 52.6667L150.333 46V50H153V43.3334C153 41.8667 151.8 40.6667 150.333 40.6667H129C127.533 40.6667 126.347 41.8667 126.347 43.3334L126.333 59.3334C126.333 60.8 127.533 62 129 62H142.333V59.3334H129V46ZM150.333 43.3334L139.667 50L129 43.3334H150.333Z" fill="black"/>
<path d="M153 56.6667V62C153 63.4667 151.8 64.6667 150.333 64.6667C148.867 64.6667 147.667 63.4667 147.667 62V56C147.667 55.6267 147.96 55.3334 148.333 55.3334C148.707 55.3334 149 55.6267 149 56V62H151.667V56C151.667 55.116 151.315 54.2681 150.69 53.643C150.065 53.0179 149.217 52.6667 148.333 52.6667C147.449 52.6667 146.601 53.0179 145.976 53.643C145.351 54.2681 145 55.116 145 56V62C145 64.9467 147.387 67.3334 150.333 67.3334C153.28 67.3334 155.667 64.9467 155.667 62V56.6667H153Z" fill="black"/>
<path d="M167 46L177.667 52.6667L188.333 46V50H191V43.3334C191 41.8667 189.8 40.6667 188.333 40.6667H167C165.533 40.6667 164.347 41.8667 164.347 43.3334L164.333 59.3334C164.333 60.8 165.533 62 167 62H180.333V59.3334H167V46ZM188.333 43.3334L177.667 50L167 43.3334H188.333Z" fill="black"/>
<path d="M191 56.6667V62C191 63.4667 189.8 64.6667 188.333 64.6667C186.867 64.6667 185.667 63.4667 185.667 62V56C185.667 55.6267 185.96 55.3334 186.333 55.3334C186.707 55.3334 187 55.6267 187 56V62H189.667V56C189.667 55.116 189.315 54.2681 188.69 53.643C188.065 53.0179 187.217 52.6667 186.333 52.6667C185.449 52.6667 184.601 53.0179 183.976 53.643C183.351 54.2681 183 55.116 183 56V62C183 64.9467 185.387 67.3334 188.333 67.3334C191.28 67.3334 193.667 64.9467 193.667 62V56.6667H191Z" fill="black"/>
<g clip-path="url(#clip0_129_52)">
<path fill-rule="evenodd" clip-rule="evenodd" d="M56 21V47H52V21H44C42.4087 21 40.8826 20.3679 39.7574 19.2426C38.6321 18.1174 38 16.5913 38 15V7H16C14.9391 7 13.9217 7.42143 13.1716 8.17157C12.4214 8.92172 12 9.93913 12 11V47H8V11C8 8.87827 8.84285 6.84344 10.3431 5.34315C11.8434 3.84285 13.8783 3 16 3L38 3L56 21ZM31.44 62.364C31.4629 62.9943 31.6174 63.6128 31.8937 64.1797C32.1699 64.7467 32.5618 65.2496 33.044 65.656C33.564 66.088 34.204 66.424 34.96 66.664C35.72 66.908 36.604 67.028 37.62 67.028C38.972 67.028 40.116 66.816 41.052 66.396C42 65.976 42.716 65.388 43.212 64.636C43.7164 63.8551 43.9768 62.9416 43.96 62.012C43.96 61.116 43.78 60.372 43.42 59.772C43.0537 59.1728 42.5365 58.6804 41.92 58.344C41.2127 57.953 40.451 57.6699 39.66 57.504L37.176 56.928C36.5891 56.821 36.0347 56.5801 35.556 56.224C35.3742 56.0829 35.2279 55.9013 35.1286 55.6936C35.0293 55.486 34.9798 55.2581 34.984 55.028C34.984 54.404 35.228 53.892 35.72 53.492C36.22 53.088 36.904 52.884 37.772 52.884C38.344 52.884 38.836 52.976 39.252 53.156C39.6335 53.3127 39.9702 53.5614 40.232 53.88C40.4782 54.1769 40.6435 54.5324 40.712 54.912H43.712C43.663 54.0979 43.3873 53.3136 42.916 52.648C42.4105 51.93 41.7191 51.3631 40.916 51.008C39.9338 50.5771 38.8682 50.3694 37.796 50.4C36.624 50.4 35.588 50.6 34.688 51C33.792 51.396 33.088 51.96 32.58 52.684C32.072 53.412 31.82 54.264 31.82 55.24C31.82 56.044 31.98 56.744 32.312 57.336C32.64 57.932 33.108 58.416 33.716 58.804C34.328 59.184 35.044 59.472 35.876 59.656L38.348 60.232C39.176 60.428 39.788 60.684 40.196 61.004C40.3961 61.1555 40.5563 61.3533 40.6629 61.5805C40.7695 61.8076 40.8193 62.0573 40.808 62.308C40.814 62.7201 40.6955 63.1244 40.468 63.468C40.2106 63.8193 39.856 64.0877 39.448 64.24C39.004 64.428 38.448 64.52 37.796 64.52C37.328 64.52 36.9 64.468 36.516 64.36C36.161 64.2625 35.8245 64.1071 35.52 63.9C35.2537 63.7276 35.0257 63.5023 34.8503 63.2381C34.6748 62.9738 34.5556 62.6763 34.5 62.364H31.444H31.44ZM16.536 50.728H20.108L15.012 58.756L20.028 66.724H16.396L12.996 61.064H12.856L9.444 66.724H6L10.96 58.66L6.048 50.728H9.772L13.1 56.48H13.244L16.536 50.728V50.728ZM24.228 64.028H31.016V66.724H21.064V50.728H24.228V64.028ZM54.772 50.728H58.344L53.248 58.756L58.264 66.724H54.632L51.232 61.064H51.092L47.68 66.724H44.236L49.196 58.66L44.284 50.728H48.008L51.336 56.48H51.48L54.772 50.728V50.728Z" fill="black"/>
</g>
<path d="M98.5057 44L96.3182 41.8409L106.886 31.2727L96.3182 20.733L98.5057 18.5455L111.233 31.2727L98.5057 44ZM82 36.2159V33.0909H107.312L104.188 36.2159H82ZM82 29.4545V26.3295H104.188L107.312 29.4545H82Z" fill="black"/>
<defs>
<clipPath id="clip0_129_52">
<rect width="64" height="64" fill="white" transform="translate(0 3)"/>
</clipPath>
</defs>
</svg>
